<svg width="189" height="28" viewBox="0 0 189 28" fill="none" xmlns="http://www.w3.org/2000/svg">
<path d="M7.944 27.36C6.36 27.36 4.98 27.06 3.804 26.46C2.652 25.86 1.752 24.996 1.104 23.868C0.48 22.716 0.168 21.36 0.168 19.8V7.92C0.168 6.336 0.48 4.98 1.104 3.852C1.752 2.724 2.652 1.86 3.804 1.26C4.98 0.659999 6.36 0.36 7.944 0.36C9.528 0.36 10.896 0.671999 12.048 1.296C13.2 1.896 14.088 2.76 14.712 3.888C15.336 5.016 15.648 6.36 15.648 7.92H12.408C12.408 6.432 12.012 5.292 11.22 4.5C10.452 3.684 9.36 3.276 7.944 3.276C6.528 3.276 5.412 3.672 4.596 4.464C3.804 5.256 3.408 6.396 3.408 7.884V19.8C3.408 21.288 3.804 22.44 4.596 23.256C5.412 24.048 6.528 24.444 7.944 24.444C9.36 24.444 10.452 24.048 11.22 23.256C12.012 22.44 12.408 21.288 12.408 19.8H15.648C15.648 21.336 15.336 22.68 14.712 23.832C14.088 24.96 13.2 25.836 12.048 26.46C10.896 27.06 9.528 27.36 7.944 27.36Z" fill="#FF0909"/>
<path d="M29.3859 27.288C27.8019 27.288 26.4339 26.988 25.2819 26.388C24.1299 25.788 23.2299 24.924 22.5819 23.796C21.9579 22.644 21.6459 21.288 21.6459 19.728V14.472C21.6459 12.888 21.9579 11.532 22.5819 10.404C23.2299 9.276 24.1299 8.412 25.2819 7.812C26.4339 7.212 27.8019 6.912 29.3859 6.912C30.9699 6.912 32.3379 7.212 33.4899 7.812C34.6419 8.412 35.5299 9.276 36.1539 10.404C36.8019 11.532 37.1259 12.876 37.1259 14.436V19.728C37.1259 21.288 36.8019 22.644 36.1539 23.796C35.5299 24.924 34.6419 25.788 33.4899 26.388C32.3379 26.988 30.9699 27.288 29.3859 27.288ZM29.3859 24.408C30.8019 24.408 31.9059 24.012 32.6979 23.22C33.4899 22.428 33.8859 21.264 33.8859 19.728V14.472C33.8859 12.936 33.4899 11.772 32.6979 10.98C31.9059 10.188 30.8019 9.792 29.3859 9.792C27.9939 9.792 26.8899 10.188 26.0739 10.98C25.2819 11.772 24.8859 12.936 24.8859 14.472V19.728C24.8859 21.264 25.2819 22.428 26.0739 23.22C26.8899 24.012 27.9939 24.408 29.3859 24.408ZM49.8199 27.36C47.8519 27.36 46.2559 26.7 45.0319 25.38C43.8319 24.06 43.2319 22.272 43.2319 20.016V14.22C43.2319 11.94 43.8319 10.14 45.0319 8.82C46.2319 7.5 47.8279 6.84 49.8199 6.84C51.4519 6.84 52.7599 7.284 53.7439 8.172C54.7279 9.06 55.2199 10.248 55.2199 11.736L54.5719 10.98H55.2919L55.2199 6.48V0.719999H58.4599V27H55.2199V23.22H54.5719L55.2199 22.464C55.2199 23.976 54.7279 25.176 53.7439 26.064C52.7599 26.928 51.4519 27.36 49.8199 27.36ZM50.8999 24.552C52.2439 24.552 53.2999 24.132 54.0679 23.292C54.8359 22.452 55.2199 21.288 55.2199 19.8V14.4C55.2199 12.912 54.8359 11.748 54.0679 10.908C53.2999 10.068 52.2439 9.648 50.8999 9.648C49.5319 9.648 48.4519 10.056 47.6599 10.872C46.8679 11.688 46.4719 12.864 46.4719 14.4V19.8C46.4719 21.336 46.8679 22.512 47.6599 23.328C48.4519 24.144 49.5319 24.552 50.8999 24.552ZM72.5578 27.36C70.9978 27.36 69.6298 27.048 68.4538 26.424C67.3018 25.8 66.4018 24.924 65.7538 23.796C65.1298 22.644 64.8178 21.312 64.8178 19.8V14.4C64.8178 12.864 65.1298 11.532 65.7538 10.404C66.4018 9.276 67.3018 8.4 68.4538 7.776C69.6298 7.152 70.9978 6.84 72.5578 6.84C74.1178 6.84 75.4738 7.152 76.6258 7.776C77.8018 8.4 78.7018 9.276 79.3258 10.404C79.9738 11.532 80.2978 12.864 80.2978 14.4V17.892H67.9858V19.8C67.9858 21.36 68.3818 22.56 69.1738 23.4C69.9658 24.216 71.0938 24.624 72.5578 24.624C73.8058 24.624 74.8138 24.408 75.5818 23.976C76.3498 23.52 76.8178 22.848 76.9858 21.96H80.2258C80.0098 23.616 79.1938 24.936 77.7778 25.92C76.3858 26.88 74.6458 27.36 72.5578 27.36ZM77.1298 15.732V14.4C77.1298 12.84 76.7338 11.64 75.9418 10.8C75.1738 9.96 74.0458 9.54 72.5578 9.54C71.0938 9.54 69.9658 9.96 69.1738 10.8C68.3818 11.64 67.9858 12.84 67.9858 14.4V15.444H77.3818L77.1298 15.732ZM108.926 27V7.2H112.094V10.98H112.85L111.806 13.32C111.806 11.184 112.262 9.576 113.174 8.496C114.11 7.392 115.49 6.84 117.314 6.84C119.402 6.84 121.058 7.5 122.282 8.82C123.53 10.116 124.154 11.88 124.154 14.112V15.3H120.914V14.4C120.914 12.84 120.53 11.652 119.762 10.836C119.018 9.996 117.95 9.576 116.558 9.576C115.19 9.576 114.11 9.996 113.318 10.836C112.55 11.676 112.166 12.864 112.166 14.4V27H108.926ZM135.588 27.36C133.5 27.36 131.856 26.832 130.656 25.776C129.456 24.696 128.856 23.244 128.856 21.42C128.856 19.572 129.456 18.12 130.656 17.064C131.856 16.008 133.476 15.48 135.516 15.48H141.636V13.5C141.636 12.276 141.264 11.34 140.52 10.692C139.8 10.02 138.768 9.684 137.424 9.684C136.248 9.684 135.264 9.936 134.472 10.44C133.68 10.92 133.224 11.58 133.104 12.42H129.864C130.08 10.716 130.884 9.36 132.276 8.352C133.668 7.344 135.408 6.84 137.496 6.84C139.776 6.84 141.576 7.428 142.896 8.604C144.216 9.78 144.876 11.376 144.876 13.392V27H141.708V23.22H141.168L141.708 22.68C141.708 24.12 141.144 25.26 140.016 26.1C138.912 26.94 137.436 27.36 135.588 27.36ZM136.38 24.804C137.916 24.804 139.176 24.42 140.16 23.652C141.144 22.884 141.636 21.9 141.636 20.7V17.892H135.588C134.508 17.892 133.656 18.192 133.032 18.792C132.408 19.392 132.096 20.208 132.096 21.24C132.096 22.344 132.468 23.22 133.212 23.868C133.98 24.492 135.036 24.804 136.38 24.804ZM156.022 27V12.132H150.262V9.18H156.022V5.76C156.022 4.2 156.514 2.976 157.498 2.088C158.482 1.176 159.838 0.719999 161.566 0.719999H167.362V3.672H161.566C160.822 3.672 160.246 3.852 159.838 4.212C159.454 4.548 159.262 5.064 159.262 5.76V9.18H167.362V12.132H159.262V27H156.022ZM182.648 27C180.944 27 179.612 26.544 178.652 25.632C177.716 24.72 177.248 23.436 177.248 21.78V10.152H171.668V7.2H177.248V1.62H180.488V7.2H188.408V10.152H180.488V21.78C180.488 23.292 181.208 24.048 182.648 24.048H188.048V27H182.648Z" fill="white"/>
<path d="M94.2878 27.36C92.7038 27.36 91.3238 27.06 90.1478 26.46C88.9958 25.86 88.0958 24.996 87.4478 23.868C86.8238 22.716 86.5118 21.36 86.5118 19.8V7.92C86.5118 6.336 86.8238 4.98 87.4478 3.852C88.0958 2.724 88.9958 1.86 90.1478 1.26C91.3238 0.659999 92.7038 0.36 94.2878 0.36C95.8718 0.36 97.2398 0.671999 98.3918 1.296C99.5438 1.896 100.432 2.76 101.056 3.888C101.68 5.016 101.992 6.36 101.992 7.92H98.7518C98.7518 6.432 98.3558 5.292 97.5638 4.5C96.7958 3.684 95.7038 3.276 94.2878 3.276C92.8718 3.276 91.7558 3.672 90.9398 4.464C90.1478 5.256 89.7518 6.396 89.7518 7.884V19.8C89.7518 21.288 90.1478 22.44 90.9398 23.256C91.7558 24.048 92.8718 24.444 94.2878 24.444C95.7038 24.444 96.7958 24.048 97.5638 23.256C98.3558 22.44 98.7518 21.288 98.7518 19.8H101.992C101.992 21.336 101.68 22.68 101.056 23.832C100.432 24.96 99.5438 25.836 98.3918 26.46C97.2398 27.06 95.8718 27.36 94.2878 27.36Z" fill="#15FF00"/>
</svg>
